<svg xmlns="http://www.w3.org/2000/svg" width="24" height="24" viewBox="0 0 24 24">
    <defs>
        <linearGradient id="a" x1="100%" x2="0%" y1="91.506%" y2="8.494%">
            <stop offset="0%" stop-color="#00C49C"/>
            <stop offset="100%" stop-color="#00D7CB"/>
        </linearGradient>
    </defs>
    <path fill="url(#a)" fill-rule="evenodd" d="M6.32 3.176c-2.21 0-4 1.795-4 4.009v7.126a4.004 4.004 0 0 0 4 4.009h7.6l2.622 2.333a1.331 1.331 0 0 0 2.222-.997v-1.434a4.007 4.007 0 0 0 3.112-3.911V7.185a4.004 4.004 0 0 0-4-4.009H6.32zm5.778 8.24a.667.667 0 1 1 .001-1.335.667.667 0 0 1-.001 1.335zm4.444 0a.667.667 0 1 1 .002-1.335.667.667 0 0 1-.002 1.335zm-8.835 0a.667.667 0 1 1 .001-1.335.667.667 0 0 1-.001 1.335z"/>
</svg>
