<svg width="24" height="24" viewBox="0 0 24 24" fill="none" xmlns="http://www.w3.org/2000/svg">
<path fill-rule="evenodd" clip-rule="evenodd" d="M7.23346 6.00244C6.01844 6.00244 5.03346 6.95002 5.03346 8.11892V13.7629C5.03346 14.9318 6.01844 15.8793 7.23346 15.8793H13.9251L16.4001 17.9958V15.8793H16.7668C17.9818 15.8793 18.9668 14.9318 18.9668 13.7629V8.11892C18.9668 6.95002 17.9818 6.00244 16.7668 6.00244H7.23346Z" fill="#C8C7CC"/>
<path fill-rule="evenodd" clip-rule="evenodd" d="M7.23307 4.94434H16.7664C18.5889 4.94434 20.0664 6.36571 20.0664 8.11905V13.763C20.0673 15.2452 19.0019 16.5307 17.4997 16.8601V17.996C17.5003 18.4135 17.2456 18.7924 16.8495 18.9631C16.4534 19.1338 15.9899 19.0645 15.6664 18.7861L13.5031 16.9377H7.23307C5.41053 16.9377 3.93307 15.5163 3.93307 13.763V8.11905C3.93307 6.36571 5.41053 4.94434 7.23307 4.94434Z" fill="#203463"/>
<path fill-rule="evenodd" clip-rule="evenodd" d="M8.95273 10.9193C8.95273 11.2175 8.70852 11.4593 8.40727 11.4593C8.10602 11.4593 7.86182 11.2175 7.86182 10.9193C7.86182 10.6211 8.10602 10.3794 8.40727 10.3794C8.70852 10.3794 8.95273 10.6211 8.95273 10.9193ZM12 11.4593C12.3013 11.4593 12.5455 11.2175 12.5455 10.9193C12.5455 10.6211 12.3013 10.3794 12 10.3794C11.6988 10.3794 11.4546 10.6211 11.4546 10.9193C11.4546 11.2175 11.6988 11.4593 12 11.4593ZM15.6364 11.4593C15.9376 11.4593 16.1819 11.2175 16.1819 10.9193C16.1819 10.6211 15.9376 10.3794 15.6364 10.3794C15.3352 10.3794 15.0909 10.6211 15.0909 10.9193C15.0909 11.2175 15.3352 11.4593 15.6364 11.4593Z" fill="white"/>
</svg>
