<svg xmlns="http://www.w3.org/2000/svg" width="14" height="14" viewBox="0 0 14 14">
    <path fill="#9B39FF" fill-rule="evenodd" d="M7.333 7.333v2a.667.667 0 0 1-1.333 0V8a.667.667 0 0 0-.667-.667.667.667 0 0 1 0-1.333H6c.737 0 1.333.597 1.333 1.333zm4.667 4a.667.667 0 0 1-.667.667H2a.667.667 0 0 1-.667-.667V4.667C1.333 4.299 1.632 4 2 4h9.333c.368 0 .667.299.667.667v6.666zm0-10V.667a.667.667 0 0 0-1.333 0v.666H7.333V.667A.667.667 0 0 0 6 .667v.666H2.667V.667a.667.667 0 0 0-1.334 0v.666C.597 1.333 0 1.93 0 2.667V12c0 .736.597 1.333 1.333 1.333H12c.737 0 1.333-.597 1.333-1.333V2.667c0-.737-.596-1.334-1.333-1.334z"/>
</svg>
