<svg width="24" height="24" viewBox="0 0 24 24" fill="none" xmlns="http://www.w3.org/2000/svg">
<path fill-rule="evenodd" clip-rule="evenodd" d="M5.0331 8.11905C5.0331 6.95016 6.01808 6.00258 7.2331 6.00258H16.7664C17.9815 6.00258 18.9664 6.95016 18.9664 8.11905V13.763C18.9664 14.9319 17.9815 15.8795 16.7664 15.8795H16.3998V17.996L13.9248 15.8795H7.2331C6.01808 15.8795 5.0331 14.9319 5.0331 13.763V8.11905ZM16.7664 4.94434H7.2331C5.41057 4.94434 3.93311 6.36571 3.93311 8.11905V13.763C3.93311 15.5163 5.41057 16.9377 7.2331 16.9377H13.5031L15.6664 18.7861C15.99 19.0645 16.4534 19.1338 16.8495 18.9631C17.2456 18.7924 17.5003 18.4135 17.4998 17.996V16.8601C19.0019 16.5307 20.0673 15.2452 20.0664 13.763V8.11905C20.0664 6.36571 18.589 4.94434 16.7664 4.94434ZM12.5453 10.9194C12.5453 11.2176 12.301 11.4593 11.9998 11.4593C11.6986 11.4593 11.4543 11.2176 11.4543 10.9194C11.4543 10.6212 11.6986 10.3794 11.9998 10.3794C12.301 10.3794 12.5453 10.6212 12.5453 10.9194ZM15.6362 11.4593C15.9374 11.4593 16.1816 11.2176 16.1816 10.9194C16.1816 10.6212 15.9374 10.3794 15.6362 10.3794C15.3349 10.3794 15.0907 10.6212 15.0907 10.9194C15.0907 11.2176 15.3349 11.4593 15.6362 11.4593ZM8.95248 10.9194C8.95248 11.2176 8.70827 11.4593 8.40703 11.4593C8.10578 11.4593 7.86157 11.2176 7.86157 10.9194C7.86157 10.6212 8.10578 10.3794 8.40703 10.3794C8.70827 10.3794 8.95248 10.6212 8.95248 10.9194Z" fill="#C8C7CC"/>
</svg>
