<svg xmlns="http://www.w3.org/2000/svg" width="24" height="24" viewBox="0 0 24 24">
    <path fill="#C8C7CC" fill-rule="evenodd" d="M6.32 4.513a2.67 2.67 0 0 0-2.667 2.672v7.126a2.67 2.67 0 0 0 2.667 2.672h8.111l3 2.673v-2.673h.445a2.67 2.67 0 0 0 2.666-2.672V7.185a2.67 2.67 0 0 0-2.666-2.672H6.32zm0-1.337h11.556c2.209 0 4 1.795 4 4.009v7.126a4.007 4.007 0 0 1-3.112 3.91v1.435a1.331 1.331 0 1 1-2.222.998L13.92 18.32h-7.6c-2.21 0-4-1.795-4-4.009V7.185a4.004 4.004 0 0 1 4-4.009zm5.778 8.24a.667.667 0 1 1 .001-1.335.667.667 0 0 1-.001 1.335zm4.444 0a.667.667 0 1 1 .002-1.335.667.667 0 0 1-.002 1.335zm-8.835 0a.667.667 0 1 1 .001-1.335.667.667 0 0 1-.001 1.335z"/>
</svg>
