<svg width="17" height="18" viewBox="0 0 17 18" fill="none" xmlns="http://www.w3.org/2000/svg">
<path fill-rule="evenodd" clip-rule="evenodd" d="M4.94567 16.8506C4.98088 16.7484 5 16.6387 5 16.5246V8.52462H1C0.447715 8.52462 0 8.97233 0 9.52462V16.5246C0 17.0769 0.447715 17.5246 1 17.5246H4C4.43816 17.5246 4.8105 17.2428 4.94567 16.8506ZM3.8 9.72462H1.2V16.3246H3.8V9.72462Z" fill="black"/>
<path fill-rule="evenodd" clip-rule="evenodd" d="M10.8851 6.61611C11.35 6.49668 11.8395 6.43753 12.2982 6.4128C13.1891 6.36476 14.0509 6.44281 14.5823 6.53138C15.2257 6.6386 15.7206 6.82391 16.0697 7.09561C16.4356 7.38031 16.6223 7.74679 16.649 8.14075C16.6742 8.51282 16.5542 8.86227 16.4038 9.14424C16.3435 9.2574 16.2752 9.36549 16.2026 9.46685C16.7836 10.0338 16.9923 10.6376 16.8329 11.2296C16.7306 11.6096 16.4919 11.9106 16.2335 12.1326C16.3673 12.3377 16.4594 12.5475 16.509 12.7614C16.5979 13.1438 16.5417 13.4981 16.4074 13.8018C16.2462 14.1662 15.9743 14.4574 15.6982 14.6717C15.7992 14.9105 15.8301 15.1727 15.7695 15.4455C15.6685 15.8997 15.3365 16.2763 14.9025 16.5656C14.0343 17.1444 12.544 17.5246 10.5001 17.5246C7.22613 17.5246 5.19635 16.8416 4.31444 16.4889C4.05805 16.3863 3.93334 16.0953 4.03589 15.8389C4.13845 15.5825 4.42944 15.4578 4.68583 15.5604C5.47058 15.8743 7.37413 16.5246 10.5001 16.5246C12.4562 16.5246 13.716 16.1547 14.3478 15.7335C14.6638 15.5229 14.7692 15.3369 14.7933 15.2286C14.8113 15.1476 14.802 15.0336 14.6466 14.8781C14.5329 14.7645 14.4808 14.6031 14.5066 14.4445C14.5323 14.2858 14.6328 14.1492 14.7765 14.0774C15.0554 13.9379 15.3666 13.6828 15.4929 13.3973C15.5502 13.2677 15.5691 13.1345 15.535 12.9877C15.4997 12.8359 15.3983 12.6298 15.1466 12.3781C15.0329 12.2645 14.9808 12.1031 15.0066 11.9445C15.0323 11.7858 15.1328 11.6492 15.2765 11.5774C15.5549 11.4382 15.8047 11.2022 15.8673 10.9696C15.9088 10.8157 15.9172 10.4624 15.2001 9.92457C15.0842 9.83761 15.0117 9.7046 15.0014 9.56002C14.9911 9.41544 15.0441 9.27351 15.1466 9.17102C15.2854 9.03225 15.4239 8.85657 15.5215 8.67366C15.6211 8.48688 15.6594 8.328 15.6513 8.2084C15.6447 8.11069 15.6064 8.00217 15.4556 7.88479C15.288 7.75441 14.9746 7.61055 14.4179 7.51777C13.9494 7.43967 13.1612 7.36772 12.3521 7.41135C11.5264 7.45587 10.7629 7.617 10.2775 7.9406C10.0934 8.06334 9.85049 8.05047 9.68038 7.90897C9.51028 7.76747 9.4534 7.53099 9.54056 7.32761C10.0312 6.18284 10.5519 4.52811 10.5752 3.24056C10.587 2.59042 10.4695 2.12589 10.2543 1.85289C10.091 1.64569 9.81379 1.47811 9.27991 1.50191C9.28566 1.65684 9.3286 1.92888 9.47447 2.3665C9.51187 2.47869 9.50829 2.60051 9.46437 2.71031C9.12102 3.56868 8.13499 5.65347 6.90013 7.29996C6.52731 7.79706 6.27931 8.13807 6.10145 8.38552C6.04494 8.46415 5.99447 8.53481 5.94872 8.59885C5.85344 8.73224 5.77867 8.83691 5.71263 8.92496C5.50371 9.20352 5.35299 9.35423 4.88156 9.82564L4.85369 9.85351C4.65842 10.0488 4.34184 10.0488 4.14658 9.85351C3.95132 9.65825 3.95132 9.34166 4.14658 9.1464C4.65311 8.63987 4.75062 8.54097 4.91263 8.32496C4.97163 8.24629 5.03586 8.15636 5.12554 8.0308C5.1723 7.96533 5.22598 7.89018 5.28944 7.80189C5.47096 7.54934 5.72296 7.20285 6.10013 6.69996C7.19277 5.2431 8.09384 3.39429 8.46839 2.50324C8.30502 1.96871 8.2524 1.56414 8.29178 1.26034C8.33288 0.943321 8.52901 0.547634 8.96186 0.525574C9.87165 0.417442 10.5841 0.655882 11.0397 1.23382C11.4682 1.77748 11.5883 2.52545 11.5751 3.25863C11.5557 4.3288 11.2471 5.56447 10.8851 6.61611ZM9.28914 1.35935C9.28915 1.35936 9.28902 1.35982 9.2887 1.3607Z" fill="black"/>
</svg>
