<svg width="17" height="18" viewBox="0 0 17 18" fill="none" xmlns="http://www.w3.org/2000/svg">
<path fill-rule="evenodd" clip-rule="evenodd" d="M4.94567 0.674088C4.98088 0.776254 5 0.885914 5 1.00004V9.00004H1C0.447715 9.00004 0 8.55232 0 8.00004V1.00004C0 0.447756 0.447715 4.00543e-05 1 4.00543e-05H4C4.43816 4.00543e-05 4.8105 0.281839 4.94567 0.674088ZM3.8 7.80004H1.2V1.20004H3.8V7.80004Z" fill="black"/>
<path fill-rule="evenodd" clip-rule="evenodd" d="M10.8851 10.9086C11.35 11.028 11.8395 11.0871 12.2982 11.1119C13.1891 11.1599 14.0509 11.0819 14.5823 10.9933C15.2257 10.8861 15.7206 10.7007 16.0697 10.429C16.4356 10.1443 16.6223 9.77787 16.649 9.3839C16.6742 9.01184 16.5542 8.66239 16.4038 8.38041C16.3435 8.26726 16.2752 8.15917 16.2026 8.05781C16.7836 7.49083 16.9923 6.88702 16.8329 6.2951C16.7306 5.91506 16.4919 5.61405 16.2335 5.39206C16.3673 5.18696 16.4594 4.97712 16.509 4.76321C16.5979 4.38085 16.5417 4.02652 16.4074 3.72283C16.2462 3.35841 15.9743 3.06725 15.6982 2.85295C15.7992 2.6142 15.8301 2.35196 15.7695 2.07912C15.6685 1.62493 15.3365 1.24839 14.9025 0.959059C14.0343 0.38025 12.544 8.39233e-05 10.5001 8.39233e-05C7.22613 8.39233e-05 5.19635 0.683042 4.31444 1.03581C4.05805 1.13836 3.93334 1.42935 4.03589 1.68574C4.13845 1.94213 4.42944 2.06684 4.68583 1.96428C5.47058 1.65038 7.37413 1.00008 10.5001 1.00008C12.4562 1.00008 13.716 1.36992 14.3478 1.79111C14.6638 2.00178 14.7692 2.18774 14.7933 2.29605C14.8113 2.37708 14.802 2.4911 14.6466 2.64653C14.5329 2.76018 14.4808 2.92153 14.5066 3.08018C14.5323 3.23882 14.6328 3.37542 14.7765 3.4473C15.0554 3.58673 15.3666 3.84187 15.4929 4.12734C15.5502 4.25698 15.5691 4.39015 15.535 4.53695C15.4997 4.68874 15.3983 4.89481 15.1466 5.14653C15.0329 5.26018 14.9808 5.42153 15.0066 5.58018C15.0323 5.73882 15.1328 5.87542 15.2765 5.9473C15.5549 6.08649 15.8047 6.32242 15.8673 6.55507C15.9088 6.70896 15.9172 7.06226 15.2001 7.60008C15.0842 7.68705 15.0117 7.82006 15.0014 7.96464C14.9911 8.10922 15.0441 8.25115 15.1466 8.35364C15.2854 8.49241 15.4239 8.66809 15.5215 8.851C15.6211 9.03778 15.6594 9.19666 15.6513 9.31626C15.6447 9.41396 15.6064 9.52249 15.4556 9.63987C15.288 9.77025 14.9746 9.91411 14.4179 10.0069C13.9494 10.085 13.1612 10.1569 12.3521 10.1133C11.5264 10.0688 10.7629 9.90766 10.2775 9.58406C10.0934 9.46132 9.85049 9.47419 9.68038 9.61569C9.51028 9.75719 9.4534 9.99367 9.54056 10.197C10.0312 11.3418 10.5519 12.9965 10.5752 14.2841C10.587 14.9342 10.4695 15.3988 10.2543 15.6718C10.091 15.879 9.81379 16.0465 9.27991 16.0228C9.28566 15.8678 9.3286 15.5958 9.47447 15.1582C9.51187 15.046 9.50829 14.9242 9.46437 14.8143C9.12102 13.956 8.13499 11.8712 6.90013 10.2247C6.52731 9.7276 6.27931 9.38659 6.10145 9.13913C6.04494 9.06051 5.99447 8.98985 5.94872 8.92581C5.85344 8.79242 5.77867 8.68775 5.71263 8.5997C5.50371 8.32114 5.35299 8.17043 4.88156 7.69902L4.85369 7.67115C4.65842 7.47589 4.34184 7.47589 4.14658 7.67115C3.95132 7.86641 3.95132 8.18299 4.14658 8.37826C4.65311 8.88479 4.75062 8.98368 4.91263 9.1997C4.97163 9.27837 5.03586 9.3683 5.12554 9.49386C5.1723 9.55933 5.22598 9.63448 5.28944 9.72277C5.47096 9.97532 5.72296 10.3218 6.10013 10.8247C7.19277 12.2816 8.09384 14.1304 8.46839 15.0214C8.30502 15.556 8.2524 15.9605 8.29178 16.2643C8.33288 16.5813 8.52901 16.977 8.96186 16.9991C9.87165 17.1072 10.5841 16.8688 11.0397 16.2908C11.4682 15.7472 11.5883 14.9992 11.5751 14.266C11.5557 13.1959 11.2471 11.9602 10.8851 10.9086ZM9.28914 16.1653C9.28915 16.1653 9.28902 16.1648 9.2887 16.164Z" fill="black"/>
</svg>
