<svg xmlns="http://www.w3.org/2000/svg" width="24" height="24" viewBox="0 0 24 24">
    <g fill="#FFF" fill-rule="evenodd" stroke="#C8C7CC" stroke-width="1.2">
        <path d="M12.5 12.015c1.943 0 3.536-1.658 3.536-3.707 0-2.05-1.593-3.708-3.536-3.708S8.964 6.258 8.964 8.308c0 2.047 1.595 3.707 3.536 3.707zm0-.03c-1.963 0-3.555-1.655-3.555-3.677 0-2.023 1.59-3.677 3.555-3.677 1.966 0 3.555 1.654 3.555 3.677s-1.59 3.677-3.555 3.677zM5.635 18.554h13.73a5.13 5.13 0 0 0-2.982-4.074c-1.301-.588-2.594-.88-3.883-.88-1.29 0-2.582.292-3.883.88a5.13 5.13 0 0 0-2.982 4.074z"/>
    </g>
</svg>
