<svg width="29" height="25" viewBox="0 0 29 25" fill="none" xmlns="http://www.w3.org/2000/svg">
<path fill-rule="evenodd" clip-rule="evenodd" d="M14.2853 0.833008C9.06523 0.833008 4.8335 5.06475 4.8335 10.2849C4.8335 15.505 9.06523 19.7367 14.2853 19.7367C19.5055 19.7367 23.7372 15.505 23.7372 10.2849C23.7372 5.06475 19.5055 0.833008 14.2853 0.833008ZM14.2853 18.4477C9.77705 18.4477 6.12236 14.793 6.12236 10.2847C6.12236 5.77644 9.77705 2.12176 14.2853 2.12176C18.7936 2.12176 22.4483 5.77644 22.4483 10.2847C22.4483 14.793 18.7936 18.4477 14.2853 18.4477Z" fill="black"/>
<path fill-rule="evenodd" clip-rule="evenodd" d="M18.5813 9.85572H14.7147V5.1298C14.7147 4.77388 14.4261 4.48535 14.0702 4.48535C13.7143 4.48535 13.4258 4.77388 13.4258 5.1298V11.1446H18.5813C18.9373 11.1446 19.2258 10.8561 19.2258 10.5002C19.2258 10.1442 18.9373 9.85572 18.5813 9.85572Z" fill="black"/>
</svg>
