<svg width="20" height="18" viewBox="0 0 20 18" fill="none" xmlns="http://www.w3.org/2000/svg">
<path fill-rule="evenodd" clip-rule="evenodd" d="M9.87825 8.3105C9.50936 8.3105 9.21031 8.00214 9.21031 7.62176C9.21031 7.24138 9.50936 6.93302 9.87825 6.93302C10.2471 6.93302 10.5462 7.24138 10.5462 7.62176C10.5462 8.00214 10.2471 8.3105 9.87825 8.3105ZM4.04127 1.3499C2.5534 1.3499 1.34725 2.55861 1.34725 4.04963V11.2489C1.34725 12.7399 2.5534 13.9486 4.04127 13.9486H12.2356L15.2663 16.6484V13.9486H15.7153C17.2032 13.9486 18.4094 12.7399 18.4094 11.2489V4.04963C18.4094 2.55861 17.2032 1.3499 15.7153 1.3499H4.04127ZM5.42536 8.3105C5.05647 8.3105 4.75742 8.00214 4.75742 7.62176C4.75742 7.24138 5.05647 6.93302 5.42536 6.93302C5.79425 6.93302 6.0933 7.24138 6.0933 7.62176C6.0933 8.00214 5.79425 8.3105 5.42536 8.3105ZM4.04125 0H15.7153C17.9471 0 19.7563 1.81307 19.7563 4.0496V11.2489C19.7574 13.1395 18.4528 14.7793 16.6133 15.1995V16.6483C16.614 17.181 16.3021 17.6642 15.817 17.882C15.332 18.0998 14.7645 18.0113 14.3683 17.6562L11.7192 15.2985H4.04125C1.80945 15.2985 0.00022316 13.4854 0.00022316 11.2489V4.0496C0.00022316 1.81307 1.80945 0 4.04125 0ZM14.2778 8.3105C13.9089 8.3105 13.6099 8.00214 13.6099 7.62176C13.6099 7.24138 13.9089 6.93302 14.2778 6.93302C14.6467 6.93302 14.9458 7.24138 14.9458 7.62176C14.9458 8.00214 14.6467 8.3105 14.2778 8.3105Z" fill="#333333"/>
</svg>
