<svg width="14" height="9" viewBox="0 0 14 9" fill="none" xmlns="http://www.w3.org/2000/svg">
<path fill-rule="evenodd" clip-rule="evenodd" d="M1.80273 0.6H12.8027C12.8575 0.6 12.9098 0.611022 12.9573 0.630971L8.50841 4.39545L7.75489 5.03304C7.4939 5.25388 7.11156 5.25388 6.85057 5.03304L6.09705 4.39545L1.64813 0.630974C1.69569 0.611023 1.74793 0.6 1.80273 0.6ZM1.40273 1.2093V8C1.40273 8.22091 1.58182 8.4 1.80273 8.4H12.8027C13.0236 8.4 13.2027 8.22091 13.2027 8V1.20929L9.14095 4.64619L11.5182 7.09987C11.6335 7.21887 11.6305 7.40879 11.5115 7.52408C11.3925 7.63937 11.2026 7.63637 11.0873 7.51737L8.68188 5.03464L8.14245 5.49107C7.65775 5.9012 6.9477 5.9012 6.463 5.49107L5.92358 5.03464L3.51819 7.51737C3.4029 7.63637 3.21298 7.63937 3.09398 7.52408C2.97498 7.40879 2.97198 7.21887 3.08727 7.09987L5.46451 4.64619L1.40273 1.2093ZM0.802734 1C0.802734 0.447715 1.25045 0 1.80273 0H12.8027C13.355 0 13.8027 0.447715 13.8027 1V8C13.8027 8.55229 13.355 9 12.8027 9H1.80273C1.25045 9 0.802734 8.55229 0.802734 8V1Z" fill="black"/>
</svg>
