<svg xmlns="http://www.w3.org/2000/svg" width="61" height="64" viewBox="0 0 61 64">
    <defs>
        <filter id="a" width="110.8%" height="126.4%" x="-5.4%" y="-13.2%" filterUnits="objectBoundingBox">
            <feGaussianBlur in="SourceGraphic" stdDeviation="1"/>
        </filter>
        <linearGradient id="b" x1="92.063%" x2="7.937%" y1="100%" y2="0%">
            <stop offset="0%" stop-color="#00C49C"/>
            <stop offset="100%" stop-color="#00D7CB"/>
        </linearGradient>
    </defs>
    <g fill="none" fill-rule="evenodd">
        <g transform="translate(2)">
            <ellipse cx="28.5" cy="50.652" fill="#000" filter="url(#a)" opacity=".1" rx="27.837" ry="11.348"/>
            <path fill="url(#b)" d="M24.655 56.776C10.78 55.187 0 43.338 0 28.956c0-15.463 12.463-28 27.837-28s27.837 12.537 27.837 28c0 13.867-10.02 25.378-23.175 27.61l-3.596 4.887a.5.5 0 0 1-.806 0l-3.442-4.677z"/>
        </g>
        <g fill="#FFF">
            <path d="M30 11c-7.104.185-12.821 6.122-13 13.5.12 2.181.7 4.309 1.697 6.233l.101.187C26.656 44 29.003 44 30 44c1.56 0 3.243-1.14 7.222-6.953 2.087-3 3.879-6 3.95-6.134l.102-.18A15.39 15.39 0 0 0 43 24.5c-.179-7.378-5.896-13.315-13-13.5zm9.389 18.75s-7.222 12-9.389 12c-2.167 0-9.389-12-9.389-12a13.168 13.168 0 0 1-1.444-5.25c0-6.213 4.85-11.25 10.833-11.25 5.983 0 10.833 5.037 10.833 11.25a13.165 13.165 0 0 1-1.466 5.25h.022z"/>
            <path d="M30 17a6 6 0 1 0 0 12 6 6 0 0 0 0-12zm0 9.75a3.75 3.75 0 1 1 0-7.5 3.75 3.75 0 0 1 0 7.5z"/>
        </g>
    </g>
</svg>
