<svg xmlns="http://www.w3.org/2000/svg" width="55" height="67" viewBox="0 0 55 67">
    <g fill="none" fill-rule="evenodd" transform="translate(.5 3)">
        <path fill="#E5E5E6" fill-rule="nonzero" d="M53.179 59.185L39.867 45.82c3.423-3.929 5.298-8.871 5.298-14.017C45.165 19.781 35.035 10 22.583 10S0 19.78 0 31.802s10.13 21.803 22.583 21.803c4.674 0 9.129-1.361 12.937-3.945l13.413 13.468c.561.562 1.315.872 2.123.872.765 0 1.49-.282 2.041-.793a2.778 2.778 0 0 0 .082-4.022zM22.583 15.688c9.203 0 16.691 7.229 16.691 16.114 0 8.886-7.488 16.115-16.691 16.115-9.204 0-16.692-7.229-16.692-16.115 0-8.885 7.488-16.114 16.692-16.114z"/>
        <circle cx="32.5" cy="13.5" r="13.5" fill="#B2B2B2" stroke="#FAFAFA" stroke-width="5"/>
        <path fill="#FAFAFA" fill-rule="nonzero" d="M33.172 15.48c0-.31.096-.613.288-.912.192-.299.427-.579.704-.84.277-.261.555-.53.832-.808.277-.277.512-.61.704-1 .192-.39.288-.808.288-1.256 0-.96-.347-1.712-1.04-2.256-.693-.544-1.515-.816-2.464-.816-.843 0-1.597.205-2.264.616-.667.41-1.15.995-1.448 1.752l1.584.896c.16-.47.421-.832.784-1.088.363-.256.795-.384 1.296-.384.523 0 .939.12 1.248.36.31.24.464.584.464 1.032 0 .32-.096.627-.288.92a4.203 4.203 0 0 1-.704.816c-.277.25-.555.512-.832.784a3.736 3.736 0 0 0-.704.968 2.62 2.62 0 0 0-.288 1.216h1.84zm-.912 3.712c.33 0 .613-.117.848-.352s.352-.517.352-.848c0-.33-.117-.613-.352-.848a1.156 1.156 0 0 0-.848-.352c-.341 0-.627.117-.856.352a1.17 1.17 0 0 0-.344.848c0 .33.117.613.352.848s.517.352.848.352z"/>
    </g>
</svg>
