<svg xmlns="http://www.w3.org/2000/svg" width="97" height="80" viewBox="0 0 97 80">
    <g fill="none" fill-rule="evenodd">
        <path fill="#E5E5E6" fill-rule="nonzero" d="M41.373 1.25l32.793 28.096v.018a5.299 5.299 0 0 1 1.554 5.71 5.221 5.221 0 0 1-4.683 3.56v28.08c0 2.909-2.335 5.267-5.217 5.267H43.217V72H32.784v-.017h-3.228V50.446c0-.825-.642-1.5-1.455-1.56l-.117-.005H17.406a1.57 1.57 0 0 0-1.568 1.449l-.005.116v21.536h13.723V72H15.833v-.018H10.18c-2.88 0-5.217-2.359-5.217-5.267V38.617A5.224 5.224 0 0 1 .28 35.056a5.303 5.303 0 0 1 1.555-5.71L34.626 1.25a5.177 5.177 0 0 1 6.747 0zM38.5 17a5.5 5.5 0 1 0 0 11 5.5 5.5 0 0 0 0-11z"/>
        <circle cx="71" cy="54" r="23" fill="#B2B2B2" stroke="#FAFAFA" stroke-width="5"/>
        <path fill="#FAFAFA" fill-rule="nonzero" d="M79.726 61.395L75.29 56.94a7.096 7.096 0 0 0 1.766-4.673c0-4.007-3.377-7.267-7.527-7.267C65.377 45 62 48.26 62 52.267c0 4.008 3.377 7.268 7.528 7.268a7.632 7.632 0 0 0 4.312-1.315l4.471 4.49c.187.187.438.29.708.29a.995.995 0 0 0 .68-.264.926.926 0 0 0 .027-1.34zm-10.198-14.5c3.067 0 5.563 2.41 5.563 5.372 0 2.962-2.496 5.372-5.563 5.372-3.068 0-5.564-2.41-5.564-5.372 0-2.961 2.496-5.371 5.564-5.371z"/>
    </g>
</svg>
