<svg xmlns="http://www.w3.org/2000/svg" width="25" height="24" viewBox="0 0 25 24">
    <path fill="#000" fill-rule="nonzero" d="M19.707 17.17l-1.275-1.324v-5.128c0-3.149-1.621-5.785-4.449-6.482v-.698c0-.85-.662-1.538-1.483-1.538-.82 0-1.483.687-1.483 1.538v.698c-2.837.697-4.449 3.323-4.449 6.482v5.128L5.293 17.17c-.623.646-.188 1.754.692 1.754h13.02c.89 0 1.325-1.108.702-1.754zm-3.252-.298h-7.91v-6.154c0-2.544 1.493-4.615 3.955-4.615 2.462 0 3.955 2.071 3.955 4.615v6.154zM12.5 22c1.088 0 1.977-.923 1.977-2.051h-3.954c0 1.128.88 2.051 1.977 2.051z"/>
</svg>
