<svg width="24" height="25" viewBox="0 0 24 25" fill="none" xmlns="http://www.w3.org/2000/svg">
<path fill-rule="evenodd" clip-rule="evenodd" d="M2 7.57746C2 6.70625 2.70925 6 3.58416 6H20.4158C21.2907 6 22 6.70626 22 7.57746V18.4225C22 19.2937 21.2907 20 20.4158 20H3.58416C2.70925 20 2 19.2937 2 18.4225V7.57746ZM3.58416 7.1831C3.36543 7.1831 3.18812 7.35966 3.18812 7.57746V9H20.8119V7.57746C20.8119 7.35966 20.6346 7.1831 20.4158 7.1831H3.58416ZM20.8119 12H3.18812V18.4225C3.18812 18.6403 3.36543 18.8169 3.58416 18.8169H20.4158C20.6346 18.8169 20.8119 18.6403 20.8119 18.4225V12ZM5.56445 15.9578C5.56445 15.6856 5.78516 15.4649 6.05741 15.4649H10.022C10.2942 15.4649 10.5149 15.6856 10.5149 15.9578C10.5149 16.2301 10.2942 16.4508 10.022 16.4508H6.05741C5.78516 16.4508 5.56445 16.2301 5.56445 15.9578Z" fill="#C8C7CC"/>
</svg>
