<svg width="24" height="25" viewBox="0 0 24 25" fill="none" xmlns="http://www.w3.org/2000/svg">
<path fill-rule="evenodd" clip-rule="evenodd" d="M3.58398 6C2.70898 6 2 6.70605 2 7.57764V18.4224C2 19.2939 2.70898 20 3.58398 20H20.416C21.291 20 22 19.2939 22 18.4224V7.57764C22 6.70605 21.291 6 20.416 6H3.58398ZM6.05762 15.4648C5.78516 15.4648 5.56445 15.6855 5.56445 15.958C5.56445 16.23 5.78516 16.4507 6.05762 16.4507H10.0225C10.2939 16.4507 10.5146 16.23 10.5146 15.958C10.5146 15.7651 10.4043 15.5981 10.2432 15.5176C10.1768 15.4839 10.1016 15.4648 10.0225 15.4648H6.05762ZM21 9H3V12H21V9Z" fill="#203463"/>
</svg>
