<svg width="14" height="13" viewBox="0 0 14 13" fill="none" xmlns="http://www.w3.org/2000/svg">
<g opacity="0.54" clip-path="url(#clip0)">
<path d="M11.1002 8.05304C10.8335 7.77593 10.5118 7.62776 10.1709 7.62776C9.83275 7.62776 9.50832 7.77318 9.23063 8.0503L8.36183 8.91458C8.29034 8.87616 8.21886 8.8405 8.15013 8.80483C8.05115 8.75544 7.95767 8.7088 7.87794 8.65941C7.06412 8.14359 6.32453 7.47137 5.61519 6.6016C5.27152 6.16809 5.04057 5.80318 4.87286 5.43277C5.09831 5.22699 5.30726 5.01298 5.51072 4.8072C5.5877 4.73037 5.66468 4.65081 5.74167 4.57398C6.31904 3.9978 6.31904 3.2515 5.74167 2.67531L4.99108 1.92627C4.90585 1.84122 4.81787 1.75342 4.73539 1.66562C4.57043 1.49551 4.39722 1.31991 4.21851 1.15528C3.95182 0.891884 3.63289 0.751953 3.29746 0.751953C2.96204 0.751953 2.63761 0.891884 2.36267 1.15528C2.35992 1.15803 2.35992 1.15803 2.35717 1.16077L1.42238 2.10187C1.07046 2.45307 0.869757 2.88109 0.825766 3.37771C0.759781 4.17888 0.996228 4.92518 1.17769 5.41357C1.62309 6.61258 2.28844 7.72379 3.28097 8.91458C4.4852 10.3496 5.93412 11.4827 7.58925 12.2811C8.22161 12.5802 9.06567 12.9342 10.0087 12.9945C10.0664 12.9973 10.1269 13 10.1819 13C10.817 13 11.3504 12.7723 11.7683 12.3196C11.7711 12.3141 11.7766 12.3113 11.7793 12.3058C11.9223 12.133 12.0872 11.9766 12.2605 11.8092C12.3787 11.6967 12.4997 11.5787 12.6179 11.4553C12.8901 11.1727 13.033 10.8434 13.033 10.5059C13.033 10.1657 12.8873 9.83922 12.6096 9.56484L11.1002 8.05304ZM12.0845 10.9422C12.0817 10.9422 12.0817 10.9449 12.0845 10.9422C11.9773 11.0574 11.8673 11.1617 11.7491 11.2769C11.5704 11.447 11.3889 11.6254 11.2184 11.8257C10.9408 12.122 10.6136 12.2619 10.1847 12.2619C10.1434 12.2619 10.0994 12.2619 10.0582 12.2592C9.24163 12.2071 8.4828 11.8888 7.91368 11.6172C6.35753 10.8654 4.99108 9.79806 3.85559 8.4454C2.91805 7.31772 2.29119 6.2751 1.87603 5.15565C1.62034 4.47246 1.52686 3.94018 1.5681 3.43807C1.59559 3.11706 1.71932 2.85091 1.94752 2.62318L2.88506 1.68757C3.01978 1.56136 3.16274 1.49276 3.30296 1.49276C3.47617 1.49276 3.61639 1.59702 3.70437 1.68482C3.70712 1.68757 3.70987 1.69031 3.71262 1.69306C3.88033 1.84945 4.0398 2.01133 4.20751 2.18419C4.29274 2.27198 4.38072 2.35978 4.4687 2.45033L5.21928 3.19937C5.51072 3.4902 5.51072 3.75909 5.21928 4.04993C5.13955 4.1295 5.06257 4.20906 4.98284 4.28589C4.75189 4.52185 4.53194 4.74135 4.29274 4.95536C4.28724 4.96085 4.28174 4.96359 4.27899 4.96908C4.04255 5.20504 4.08654 5.43552 4.13603 5.59191C4.13877 5.60014 4.14152 5.60837 4.14427 5.6166C4.33948 6.08853 4.61442 6.53301 5.03232 7.06255L5.03507 7.0653C5.7939 7.99817 6.59398 8.72526 7.47653 9.28224C7.58925 9.35357 7.70473 9.41119 7.8147 9.46607C7.91368 9.51546 8.00716 9.5621 8.08689 9.61149C8.09789 9.61697 8.10889 9.62521 8.11988 9.63069C8.21336 9.67734 8.30134 9.69929 8.39207 9.69929C8.62027 9.69929 8.76324 9.55661 8.80998 9.50997L9.75027 8.57161C9.84375 8.47832 9.99221 8.36583 10.1654 8.36583C10.3359 8.36583 10.4761 8.47283 10.5613 8.56612C10.5641 8.56887 10.5641 8.56887 10.5668 8.57161L12.0817 10.0834C12.3649 10.3633 12.3649 10.6514 12.0845 10.9422Z" fill="black"/>
</g>
<defs>
<clipPath id="clip0">
<rect width="13.0267" height="13" fill="white" transform="translate(0.804688)"/>
</clipPath>
</defs>
</svg>
