<svg xmlns="http://www.w3.org/2000/svg" width="14" height="14" viewBox="0 0 14 14">
    <g fill="none" fill-rule="evenodd">
        <path d="M0 0h14v14H0z"/>
        <path fill="#203463" d="M6.5 0C3.494.073 1.076 2.412 1 5.318c.051.86.296 1.698.718 2.455l.043.074C5.085 13 6.078 13 6.5 13c.66 0 1.372-.45 3.056-2.739a42.31 42.31 0 0 0 1.67-2.417l.044-.07A5.746 5.746 0 0 0 12 5.317C11.924 2.412 9.506.073 6.5 0z"/>
        <path fill="#FFF" d="M6.5 8a2.5 2.5 0 1 1 0-5 2.5 2.5 0 0 1 0 5z"/>
    </g>
</svg>
