<svg xmlns="http://www.w3.org/2000/svg" width="14" height="14" viewBox="0 0 14 14">
    <g fill="none" fill-rule="nonzero">
        <path fill="#203463" d="M13 3.756c0-.868-.677-1.571-1.512-1.571h-.695v-.87A.309.309 0 0 0 10.491 1a.309.309 0 0 0-.303.314v.87H7.302v-.87A.309.309 0 0 0 7 1a.309.309 0 0 0-.302.314v.87H3.812v-.87A.309.309 0 0 0 3.509 1a.309.309 0 0 0-.302.314v.87h-.695C1.677 2.185 1 2.889 1 3.757v7.673c0 .417.16.816.443 1.11.284.295.668.461 1.07.461h8.975c.835 0 1.512-.703 1.512-1.571V3.756z"/>
        <path fill="#FFF" stroke="#FFF" stroke-width=".5" d="M6.11 9.196a.32.32 0 0 0 .456 0l3.703-3.622a.34.34 0 0 0 .01-.471.32.32 0 0 0-.46-.01L6.345 8.499 4.557 6.666a.32.32 0 0 0-.46-.002.34.34 0 0 0-.003.472l2.017 2.06z"/>
    </g>
</svg>
