<svg xmlns="http://www.w3.org/2000/svg" width="12" height="10" viewBox="0 0 12 10">
    <path fill="#2AA7A3" fill-rule="evenodd" d="M2.95.296h6.1c1.167 0 2.113.948 2.113 2.117v3.762c0 .988-.682 1.846-1.643 2.065v.757a.706.706 0 0 1-1.173.527L6.962 8.292H2.95A2.114 2.114 0 0 1 .837 6.175V2.413c0-1.17.946-2.117 2.112-2.117zM6 4.616c.187 0 .338-.17.338-.382 0-.211-.151-.382-.338-.382-.187 0-.338.17-.338.382s.151.383.338.383zm2.254 0c.187 0 .338-.17.338-.382 0-.211-.151-.382-.338-.382-.187 0-.338.17-.338.382s.151.383.338.383zm-4.48 0c.186 0 .337-.17.337-.382 0-.211-.151-.382-.338-.382-.187 0-.338.17-.338.382s.151.383.338.383z"/>
</svg>
