<svg xmlns="http://www.w3.org/2000/svg" width="40" height="40" viewBox="0 0 40 40">
    <path fill="#F63758" fill-rule="nonzero" d="M25.09 18.714c2.114 0 3.806-1.723 3.806-3.857 0-2.134-1.692-3.857-3.805-3.857-2.113 0-3.818 1.723-3.818 3.857 0 2.134 1.705 3.857 3.818 3.857zm-10.18 0c2.112 0 3.805-1.723 3.805-3.857 0-2.134-1.693-3.857-3.806-3.857s-3.818 1.723-3.818 3.857c0 2.134 1.705 3.857 3.818 3.857zm0 2.572c-2.966 0-8.91 1.504-8.91 4.5v1.928C6 28.421 6.573 29 7.273 29h15.272c.7 0 1.273-.579 1.273-1.286v-1.928c0-2.996-5.943-4.5-8.909-4.5zm10.18 0c-.368 0-.788.025-1.234.064.026.013.039.039.051.051 1.451 1.068 2.457 2.495 2.457 4.385v1.928c0 .45-.09.887-.23 1.286h6.593c.7 0 1.273-.579 1.273-1.286v-1.928c0-2.996-5.944-4.5-8.91-4.5z"/>
</svg>
