<?xml version="1.0" encoding="UTF-8"?>
<svg width="20px" height="19px" viewBox="0 0 20 19" version="1.1" xmlns="http://www.w3.org/2000/svg" xmlns:xlink="http://www.w3.org/1999/xlink">
    <!-- Generator: Sketch 61.2 (89653) - https://sketch.com -->
    <title>ico-sentto</title>
    <desc>Created with Sketch.</desc>
    <g id="Page-1" stroke="none" stroke-width="1" fill="none" fill-rule="evenodd">
        <g id="ico-sentto" transform="translate(1.000000, 2.000000)" fill="#C8C7CC" fill-rule="nonzero">
            <path d="M10.5939489,-1.8181928 L10.593,3.411 L10.4403575,3.41980086 C7.28811132,3.60315347 4.95722792,4.22683032 3.43840733,5.325 L3.35920655,5.38984667 C1.306607,7.10760956 -0.00679005061,9.327744 -0.521537702,11.9591484 C-0.701814306,12.8789781 -0.775852119,13.8172775 -0.742046058,14.7543134 L-0.658647206,17.0659615 L0.63024846,15.1451751 C2.58119803,12.237758 4.97446483,10.7047676 7.56345487,10.1865769 L7.89941706,10.1247655 L8.10829692,10.0745971 C8.6832457,9.94706411 9.40233936,9.86945732 10.2813808,9.84011267 L10.593,9.832 L10.5935711,15.2891361 L19.0549454,6.69255241 L10.5939489,-1.8181928 Z M12.093,1.817 L16.945,6.697 L12.093,11.627 L12.0935711,8.33233016 L11.3485284,8.32740554 L10.9806486,8.32703438 C9.65607894,8.33340509 8.59875296,8.42499594 7.79845398,8.60748518 L7.56495574,8.66129453 L7.24929178,8.7195484 C5.04477095,9.1585073 2.95036676,10.2544928 1.12056434,12.146658 L0.933,12.345 L0.950509388,12.2473797 C1.37564059,10.0740973 2.41523231,8.24023622 4.05376125,6.77245113 L4.36967274,6.49899976 C5.68349362,5.55273007 8.03757436,4.98441113 11.3674655,4.87994951 L12.0939489,4.85715908 L12.093,1.817 Z" id="Path"></path>
        </g>
    </g>
</svg>