<svg xmlns="http://www.w3.org/2000/svg" width="18" height="18" viewBox="0 0 18 18">
    <path fill="#203463" fill-rule="evenodd" d="M16.688 6.56a1.2 1.2 0 0 1 1.208 1.2v2.4a1.2 1.2 0 0 1-1.2 1.2h-1.24c-.053.136-.11.27-.168.4l.86.876a1.2 1.2 0 0 1 0 1.696l-1.696 1.696a1.2 1.2 0 0 1-1.696 0l-.876-.876c-.13.061-.264.117-.4.168v1.24a1.2 1.2 0 0 1-1.2 1.2h-2.4a1.2 1.2 0 0 1-1.2-1.2v-1.24a8.987 8.987 0 0 1-.4-.168l-.876.876a1.2 1.2 0 0 1-1.696 0l-1.696-1.696a1.2 1.2 0 0 1 0-1.696l.876-.876a5.275 5.275 0 0 1-.168-.4H1.48a1.2 1.2 0 0 1-1.2-1.2v-2.4a1.2 1.2 0 0 1 1.2-1.2h1.24c.053-.136.11-.27.168-.4l-.868-.876a1.2 1.2 0 0 1 0-1.696l1.696-1.696a1.2 1.2 0 0 1 1.696 0l.876.876c.13-.061.264-.117.4-.168V1.36a1.2 1.2 0 0 1 1.2-1.2h2.4a1.2 1.2 0 0 1 1.2 1.2V2.6c.136.053.27.11.4.168l.876-.876a1.2 1.2 0 0 1 1.696 0l1.696 1.696a1.2 1.2 0 0 1 0 1.696l-.876.876c.061.13.117.264.168.4h1.24zm-7.6-.8a3.2 3.2 0 1 0 0 6.4 3.2 3.2 0 0 0 0-6.4z"/>
</svg>
