<svg xmlns="http://www.w3.org/2000/svg" width="24" height="25" viewBox="0 0 24 25">
    <g fill="#C8C7CC" fill-rule="evenodd">
        <path d="M12.088 8.76a3.2 3.2 0 1 0 0 6.4 3.2 3.2 0 0 0 0-6.4zm0 5.2a2 2 0 1 1 0-4 2 2 0 0 1 0 4z"/>
        <path d="M19.688 9.56h-1.24a5.275 5.275 0 0 0-.168-.4l.876-.876a1.2 1.2 0 0 0 0-1.696L17.46 4.892a1.2 1.2 0 0 0-1.696 0l-.876.876a8.987 8.987 0 0 0-.4-.168V4.36a1.2 1.2 0 0 0-1.2-1.2h-2.4a1.2 1.2 0 0 0-1.2 1.2V5.6c-.136.05-.27.107-.4.168l-.876-.876a1.2 1.2 0 0 0-1.696 0L5.02 6.588a1.2 1.2 0 0 0 0 1.696l.868.876c-.059.13-.115.264-.168.4H4.48a1.2 1.2 0 0 0-1.2 1.2v2.4a1.2 1.2 0 0 0 1.2 1.2h1.24c.05.136.107.27.168.4l-.876.876a1.2 1.2 0 0 0 0 1.696l1.696 1.696a1.2 1.2 0 0 0 1.696 0l.876-.876c.13.059.264.115.4.168v1.24a1.2 1.2 0 0 0 1.2 1.2h2.4a1.2 1.2 0 0 0 1.2-1.2v-1.24c.136-.05.27-.107.4-.168l.876.876a1.2 1.2 0 0 0 1.696 0l1.696-1.696a1.2 1.2 0 0 0 0-1.696l-.86-.876c.059-.13.115-.264.168-.4h1.24a1.2 1.2 0 0 0 1.2-1.2v-2.4a1.2 1.2 0 0 0-1.208-1.2zm0 3.6h-2.132a5.56 5.56 0 0 1-.756 1.816l1.508 1.508-1.696 1.696-1.524-1.508a5.56 5.56 0 0 1-1.816.756v2.132h-2.4v-2.132a5.56 5.56 0 0 1-1.816-.756L7.548 18.18l-1.696-1.696 1.508-1.508a5.56 5.56 0 0 1-.756-1.816H4.488v-2.4H6.62a5.56 5.56 0 0 1 .756-1.816L5.868 7.436 7.564 5.74l1.508 1.508a5.56 5.56 0 0 1 1.816-.756V4.36h2.4v2.132a5.56 5.56 0 0 1 1.816.756l1.508-1.508 1.696 1.696L16.8 8.944a5.56 5.56 0 0 1 .756 1.816h2.132v2.4z"/>
    </g>
</svg>
