<svg xmlns="http://www.w3.org/2000/svg" width="21" height="19" viewBox="0 0 21 19">
    <g fill="none" fill-rule="evenodd" transform="translate(1)">
        <path stroke="#C8C7CC" stroke-width="1.5" d="M3 3.798h13a3 3 0 0 1 3 3v8a3 3 0 0 1-3 3H3a3 3 0 0 1-3-3v-8a3 3 0 0 1 3-3zM4.5 3V0M15 3V0"/>
        <rect width="3" height="2" x="3" y="8" fill="#C8C7CC" rx="1"/>
        <rect width="3" height="2" x="3" y="12" fill="#C8C7CC" rx="1"/>
        <rect width="3" height="2" x="8" y="8" fill="#C8C7CC" rx="1"/>
        <rect width="3" height="2" x="8" y="12" fill="#C8C7CC" rx="1"/>
        <rect width="3" height="2" x="13" y="8" fill="#C8C7CC" rx="1"/>
        <rect width="3" height="2" x="13" y="12" fill="#C8C7CC" rx="1"/>
    </g>
</svg>
