<svg width="40" height="42" viewBox="0 0 40 42" fill="none" xmlns="http://www.w3.org/2000/svg">
<path fill-rule="evenodd" clip-rule="evenodd" d="M20 37.5885C29.3888 37.5885 37 30.1594 37 20.9952C37 11.8309 29.3888 4.40186 20 4.40186C10.6112 4.40186 3 11.8309 3 20.9952C3 30.1594 10.6112 37.5885 20 37.5885Z" fill="#F74553"/>
<path fill-rule="evenodd" clip-rule="evenodd" d="M28.676 13.6415H24.769C24.0949 11.8872 22.3868 10.7263 20.4796 10.7263C18.5723 10.7263 16.8642 11.8872 16.1901 13.6415H12.2831C11.9059 13.6415 11.6001 13.9422 11.6001 14.3132C11.6001 14.6841 11.9059 14.9848 12.2831 14.9848H12.7385V28.8652C12.7385 29.6071 13.3501 30.2085 14.1046 30.2085H26.3992C27.1537 30.2085 27.7653 29.6071 27.7653 28.8652V14.9848H28.676C29.0532 14.9848 29.359 14.6841 29.359 14.3132C29.359 13.9422 29.0532 13.6415 28.676 13.6415ZM20.4796 12.0744C21.7227 12.0744 22.8019 12.5221 23.3347 13.6415H17.6245C18.1572 12.5177 19.2364 12.0744 20.4796 12.0744ZM26.3992 28.8652H24.5778V21.2534C24.5778 20.8824 24.272 20.5817 23.8947 20.5817C23.5175 20.5817 23.2117 20.8824 23.2117 21.2534V28.8652H20.9349V18.5668C20.9349 18.1959 20.6291 17.8952 20.2519 17.8952C19.8747 17.8952 19.5688 18.1959 19.5688 18.5668V28.8652H17.2921V21.2534C17.2921 20.8824 16.9863 20.5817 16.609 20.5817C16.2318 20.5817 15.926 20.8824 15.926 21.2534V28.8652H14.1046V14.9848H26.3992V28.8652Z" fill="white"/>
</svg>
