<svg xmlns="http://www.w3.org/2000/svg" width="40" height="42" viewBox="0 0 40 42">
    <defs>
        <linearGradient id="a" x1="0%" y1="97.636%" y2="2.364%">
            <stop offset="0%" stop-color="#FF9C35"/>
            <stop offset="100%" stop-color="#F52C5C"/>
        </linearGradient>
    </defs>
    <g fill="none" fill-rule="evenodd" transform="translate(0 -.598)">
        <ellipse cx="20" cy="21.593" fill="url(#a)" rx="17" ry="16.593"/>
        <path fill="#FFF" d="M28.676 14.24H24.77c-.674-1.755-2.382-2.916-4.29-2.916-1.907 0-3.615 1.161-4.289 2.916h-3.907c-.377 0-.683.3-.683.671 0 .371.306.672.683.672h.456v13.88c0 .742.611 1.344 1.366 1.344h12.294c.755 0 1.366-.602 1.366-1.344v-13.88h.911c.377 0 .683-.3.683-.672a.677.677 0 0 0-.683-.671zm-8.196-1.568c1.243 0 2.322.448 2.855 1.568h-5.71c.532-1.124 1.612-1.568 2.855-1.568zm5.92 16.791h-1.822v-7.612a.677.677 0 0 0-.683-.671c-.377 0-.683.3-.683.671v7.612h-2.277V19.165a.677.677 0 0 0-.683-.672c-.377 0-.683.301-.683.672v10.298h-2.277v-7.612a.677.677 0 0 0-.683-.671c-.377 0-.683.3-.683.671v7.612h-1.821v-13.88h12.294v13.88z"/>
    </g>
</svg>
